<svg xmlns="http://www.w3.org/2000/svg" xmlns:xlink="http://www.w3.org/1999/xlink" viewBox="0 0 687 289.35"><defs><style>.cls-1{fill:none;}.cls-2{fill:#73b0d9;}.cls-3{clip-path:url(#clip-path);}.cls-4{fill:#50a2d6;}.cls-5{fill:#0e8dc9;}.cls-6{fill:#139ad2;}.cls-7{fill:#fff;}</style><clipPath id="clip-path"><rect class="cls-1" x="19.5" y="19.5" width="648" height="198"/></clipPath></defs><g id="Layer_2" data-name="Layer 2"><g id="RGB_-_FULL_COLOR_-_Right_Aligned_Tag" data-name="RGB - FULL COLOR - Right Aligned Tag"><polygon class="cls-2" points="0 0 0 279 378 279 378 277.5 1.5 277.5 1.5 1.5 685.5 1.5 685.5 277.5 675 277.5 675 279 687 279 687 0 0 0"/><g class="cls-3"><rect class="cls-4" x="278.17" y="19.5" width="125.12" height="198"/><rect class="cls-2" x="19.5" y="19.5" width="208.5" height="198"/><rect class="cls-4" x="458.31" y="19.5" width="170.79" height="198"/><rect class="cls-2" x="402" y="19.5" width="58.5" height="198"/><rect class="cls-5" x="226.5" y="19.5" width="54" height="198"/><rect class="cls-6" x="627" y="19.5" width="40.5" height="198"/></g><path class="cls-7" d="M152.68,37.53v8.2H138V81.47h-8.79V45.73H114.6v-8.2Z"/><path class="cls-7" d="M159.52,81.47V37.53h8.79V55.11h20.48V37.5h8.78v44l-8.78,0V63.31H168.31V81.47Z"/><path class="cls-7" d="M206.35,81.47V37.56l32.28,0v8.2H215.14v9.38h17.61v8.17H215.14v10h23.44v8.2Z"/><path class="cls-7" d="M42.6,134.25a22.55,22.55,0,0,1,0-31.32,21.18,21.18,0,0,1,15.62-6.32,23.79,23.79,0,0,1,16.14,5.86l-5.86,6.42a16.24,16.24,0,0,0-10.28-3.52,12.53,12.53,0,0,0-13.16,13.07q0,6.12,3.66,9.73a13,13,0,0,0,9.55,3.6,15.72,15.72,0,0,0,10.23-3.49l5.86,6.42a23.69,23.69,0,0,1-16.14,5.86A21.35,21.35,0,0,1,42.6,134.25Z"/><path class="cls-7" d="M82.33,140.56V96.61h8.79v17.58H111.6V96.58h8.79v44l-8.79,0V122.4H91.12v18.16Z"/><path class="cls-7" d="M126.67,140.56l17.57-43.95H153l17.55,43.92-9.34,0-2.64-6.74H138.68L136,140.56Zm22.2-32.23L142.19,125h13.19Z"/><path class="cls-7" d="M203.3,121.4l11,19.16H204.18L193.66,122.4h-8v18.16h-8.79V96.61H196q15.39,0,15.38,12.66Q211.38,118.8,203.3,121.4Zm-17.67-7.21h12.31q5.3-.09,5.45-4.83c-.1-2.89-1.89-4.4-5.36-4.51h-12.4Z"/><path class="cls-7" d="M229.2,96.61v35.75h23.44v8.2H220.41V96.61Z"/><path class="cls-7" d="M259.16,140.56V96.64l32.29,0v8.21H268v9.37h17.61v8.18H268v10h23.44v8.2Z"/><path class="cls-7" d="M324.68,98.08a20.48,20.48,0,0,1,6.3,4.39l-5.86,5.86a10.09,10.09,0,0,0-8.2-3.51c-3.52,0-5.76.83-6.74,2.49s-1,3.07,0,4.25,3.22,2,6.74,2.63A21.84,21.84,0,0,1,327,117.85q4.53,3.09,4.54,9.82,0,5.27-4.85,9.08a17.76,17.76,0,0,1-11.3,3.81,26,26,0,0,1-10.22-1.76,21.93,21.93,0,0,1-7-4.69l5.86-5.86q2.93,3.52,10,4.11,5.85,0,7.31-2.49a4.67,4.67,0,0,0,0-5q-1.46-2.49-7.31-3.08a23.72,23.72,0,0,1-9.67-3.22q-4.4-2.64-4.39-9.09a11,11,0,0,1,5-9.36,17.61,17.61,0,0,1,10.27-3.53C319.27,96.61,322.44,97.1,324.68,98.08Z"/><path class="cls-7" d="M364,140.56V96.64l32.28,0v8.21H372.8v9.37h17.61v8.18H372.8v10h23.44v8.2Z"/><path class="cls-7" d="M406,133.51a4.23,4.23,0,0,1,3.16-1.18,4.39,4.39,0,0,1,3.28,1.18,4,4,0,0,1,1.17,3,4,4,0,0,1-1.17,2.93,5,5,0,0,1-6.44,0,4,4,0,0,1-1.18-2.93A4.05,4.05,0,0,1,406,133.51Z"/><path class="cls-7" d="M447.56,96.61h8.79v17.58L471,96.61h9.87l-17.2,20.51,20.8,23.44H473.05l-16.7-19v19h-8.79Z"/><path class="cls-7" d="M497,96.61V122.1q0,5,2.93,7.33a12.63,12.63,0,0,0,14.65,0q2.92-2.36,2.93-7.33V96.61h8.79v27.84a14.56,14.56,0,0,1-5.42,11.42,22.14,22.14,0,0,1-27.25,0,14.56,14.56,0,0,1-5.42-11.42V96.61Z"/><path class="cls-7" d="M567,117.39q5.78,3.85,6.12,10-.58,12.44-13.27,13.16l-24.72,0V96.64h23.32q11.1.64,11.72,12.92Q569.94,115.43,567,117.39Zm-23.06-3.14h12.31c3.53-.06,5.35-1.88,5.45-5.48q-.15-3.22-5.36-3.4h-12.4Zm0,19.45h14.36q6.18-.07,6.33-6.35c-.1-2.82-2.18-4.28-6.24-4.4H543.92Z"/><path class="cls-7" d="M590.14,96.61v35.75h23.44v8.2H581.35V96.61Z"/><path class="cls-7" d="M610.44,96.61h10.31L630.94,111l10.43-14.36h10.08l-16.11,22v22h-8.79v-22Z"/><path class="cls-7" d="M188.79,199.5V155.56h30.9v8.2H197.57v9.37h16.32v8.18H197.57V199.5Z"/><path class="cls-7" d="M229.55,193.19a22.64,22.64,0,1,1,15.68,6.31A21.29,21.29,0,0,1,229.55,193.19Zm15.71-1.89a12.34,12.34,0,0,0,9.49-4,15,15,0,0,0,0-19.63,13.46,13.46,0,0,0-19.05,0,15,15,0,0,0,0,19.63A12.43,12.43,0,0,0,245.26,191.3Z"/><path class="cls-7" d="M283.05,155.56V181c0,3.32,1,5.77,2.93,7.33a12.63,12.63,0,0,0,14.65,0c1.95-1.56,2.93-4,2.93-7.33V155.56h8.78v27.83a14.53,14.53,0,0,1-5.42,11.42,22.12,22.12,0,0,1-27.24,0,14.53,14.53,0,0,1-5.42-11.42V155.56Z"/><path class="cls-7" d="M321.24,199.5V155.56h2.93l27.54,27.53V155.56h8.78V199.5h-3.22L330,172.25V199.5Z"/><path class="cls-7" d="M369.91,199.5v-44h16.93q20.51,0,20.51,22t-20.51,22Zm16.93-8.76q11.69,0,11.72-13.21t-11.72-13.19h-8.15v26.4Z"/><path class="cls-7" d="M409.67,199.5l17.57-43.94H436l17.55,43.91-9.34,0-2.64-6.74H421.68L419,199.5Zm22.2-32.23L425.19,184h13.19Z"/><path class="cls-7" d="M489.4,155.56v8.2H474.76V199.5H466V163.76H451.32v-8.2Z"/><path class="cls-7" d="M495.94,155.53h8.76v44h-8.76Z"/><path class="cls-7" d="M518.19,193.19a22.64,22.64,0,1,1,15.67,6.31A21.29,21.29,0,0,1,518.19,193.19Zm15.7-1.89a12.33,12.33,0,0,0,9.49-4,15,15,0,0,0,0-19.63,13.45,13.45,0,0,0-19,0,15,15,0,0,0,0,19.63A12.4,12.4,0,0,0,533.89,191.3Z"/><path class="cls-7" d="M563.27,199.5V155.56h2.93l27.54,27.53V155.56h8.78V199.5H599.3l-27.24-27.25V199.5Z"/><path class="cls-5" d="M19.73,256l7.62-19h3.81l7.6,19h-4l-1.14-2.92H24.94L23.79,256Zm9.62-14-2.89,7.24h5.71Z"/><path class="cls-5" d="M51.81,261.34V243.68l3.56-.38v1a4.78,4.78,0,0,1,2.79-1,5.91,5.91,0,0,1,4.63,1.91,6.59,6.59,0,0,1,0,8.88A5.91,5.91,0,0,1,58.16,256a4.21,4.21,0,0,1-2.79-1v6.38Zm3.56-12.83v2.05a2.74,2.74,0,0,0,2.66,2.5,3.35,3.35,0,0,0,3.43-3.16c-.08-2.37-1.23-3.59-3.43-3.68C56.42,246.48,55.54,247.24,55.37,248.51Z"/><path class="cls-5" d="M75.53,251.5v-8.2h3.56V256H75.53v-1.16a4.38,4.38,0,0,1-3,1.15,4.61,4.61,0,0,1-3.68-1.46,5,5,0,0,1-1.27-3.37V243.3h3.55v7a2.78,2.78,0,0,0,.64,2,2.56,2.56,0,0,0,1.91.74A2.44,2.44,0,0,0,75.53,251.5Z"/><path class="cls-5" d="M86.43,237v7.37a4.26,4.26,0,0,1,2.8-1,5.92,5.92,0,0,1,4.63,1.91,6.63,6.63,0,0,1,0,8.89,5.92,5.92,0,0,1-4.63,1.9,4.81,4.81,0,0,1-2.8-1v1H82.88V237Zm2.67,16.12c2.2-.09,3.34-1.31,3.43-3.68a3.35,3.35,0,0,0-3.43-3.16,2.76,2.76,0,0,0-2.67,2.5v2.05C86.6,252.07,87.49,252.84,89.1,253.09Z"/><path class="cls-5" d="M98.94,256V237h3.56v19Z"/><path class="cls-5" d="M107.43,239a1.86,1.86,0,0,1,1.37-.51,1.94,1.94,0,0,1,1.43.51,1.77,1.77,0,0,1,.5,1.28,1.75,1.75,0,0,1-.5,1.27,2.21,2.21,0,0,1-2.8,0,1.72,1.72,0,0,1-.51-1.27A1.74,1.74,0,0,1,107.43,239Zm3.18,17V243.3h-3.56V256Z"/><path class="cls-5" d="M115.79,254.42a5.09,5.09,0,0,1-1.9-4.12V249a5.11,5.11,0,0,1,1.9-4.13,6.75,6.75,0,0,1,4.46-1.59,6.62,6.62,0,0,1,5.06,2.16l-2.54,1.91a3.51,3.51,0,0,0-2.53-1.15,3,3,0,0,0-2.23,1,3.43,3.43,0,0,0-1,2.41,3.54,3.54,0,0,0,.89,2.41,2.89,2.89,0,0,0,2.29,1,3.5,3.5,0,0,0,2.53-1.14l2.54,1.9a6.66,6.66,0,0,1-5.07,2.16A6.73,6.73,0,0,1,115.79,254.42Z"/><path class="cls-5" d="M139.66,254.42a5.09,5.09,0,0,1-1.9-4.12V249a5.11,5.11,0,0,1,1.9-4.13,6.75,6.75,0,0,1,4.46-1.59,6.62,6.62,0,0,1,5.06,2.16l-2.54,1.91a3.54,3.54,0,0,0-2.54-1.15,3,3,0,0,0-2.22,1,3.43,3.43,0,0,0-.95,2.41,3.54,3.54,0,0,0,.89,2.41,2.88,2.88,0,0,0,2.28,1,3.52,3.52,0,0,0,2.54-1.14l2.54,1.9a7,7,0,0,1-9.52.57Z"/><path class="cls-5" d="M156.11,247.43V256h-3.56V237h3.56v7.49a4.43,4.43,0,0,1,3-1.15,4.65,4.65,0,0,1,3.69,1.46,5,5,0,0,1,1.27,3.37V256h-3.56v-7a2.84,2.84,0,0,0-.63-2,2.6,2.6,0,0,0-1.92-.74A2.53,2.53,0,0,0,156.11,247.43Z"/><path class="cls-5" d="M167.59,244.84a10.21,10.21,0,0,1,5.59-1.53,4.55,4.55,0,0,1,4.95,5.08V256h-3.56v-1a5.21,5.21,0,0,1-2.79,1,5.77,5.77,0,0,1-3.81-1.08,3.72,3.72,0,0,1-1.27-3,4.74,4.74,0,0,1,1.2-3.18,4.85,4.85,0,0,1,3.88-1.39,6.45,6.45,0,0,1,2.79.76v-.38c0-.93-.69-1.44-2-1.53A6.88,6.88,0,0,0,169,247Zm7,7.36v-1.43c-.34-.65-1.14-1-2.41-1-1.52.17-2.33.76-2.41,1.78.08,1,.89,1.55,2.41,1.63C173.43,253.2,174.23,252.87,174.57,252.2Z"/><path class="cls-5" d="M185.41,244.71a4.44,4.44,0,0,1,3.31-1.4,6.31,6.31,0,0,1,1.18.11l-.56,3.5a2.72,2.72,0,0,0-1.77-.6c-.87.06-1.59.69-2.16,1.88V256h-3.56V243.68l3.56-.38Z"/><path class="cls-5" d="M193.45,239a1.86,1.86,0,0,1,1.37-.51,1.94,1.94,0,0,1,1.43.51,1.77,1.77,0,0,1,.5,1.28,1.75,1.75,0,0,1-.5,1.27,2.21,2.21,0,0,1-2.8,0,1.72,1.72,0,0,1-.51-1.27A1.74,1.74,0,0,1,193.45,239Zm3.18,17V243.3h-3.56V256Z"/><path class="cls-5" d="M206.29,256a4.72,4.72,0,0,1-3.42-1.21,4.08,4.08,0,0,1-1.27-3.11V246.2h-1.91v-2.87h1.91v-3.44l3.56-.38v3.82h1.91v2.87h-1.91v5a1.94,1.94,0,0,0,.43,1.42,1.49,1.49,0,0,0,1.1.42,6.57,6.57,0,0,0,.95-.17l.75,2.55A3.74,3.74,0,0,1,206.29,256Z"/><path class="cls-5" d="M219.25,251.62v-8.31h3.55V255a6.32,6.32,0,0,1-1.65,4.46,5.54,5.54,0,0,1-3.93,1.89l-.76.08a7.17,7.17,0,0,1-4.83-2.11l1.65-1.9a5.9,5.9,0,0,0,2.89,1.27,3,3,0,0,0,2.36-.83,3.46,3.46,0,0,0,.72-2.35v-.65a5.07,5.07,0,0,1-6.79-.3,4.94,4.94,0,0,1-1.27-3.36v-7.88h3.55v7a2.77,2.77,0,0,0,.64,2,2.52,2.52,0,0,0,1.91.74A2.58,2.58,0,0,0,219.25,251.62Z"/><path class="cls-5" d="M248.3,237v19h-3.56v-1a4.78,4.78,0,0,1-2.79,1,5.9,5.9,0,0,1-4.63-1.9,6.6,6.6,0,0,1,0-8.89,5.91,5.91,0,0,1,4.63-1.91,4.21,4.21,0,0,1,2.79,1V237Zm-3.56,13.82v-2.05a2.75,2.75,0,0,0-2.66-2.5,3.35,3.35,0,0,0-3.43,3.16c.08,2.37,1.23,3.59,3.43,3.68C243.69,252.84,244.57,252.07,244.74,250.8Z"/><path class="cls-5" d="M251.58,249.66a6.1,6.1,0,0,1,6.35-6.35,5.78,5.78,0,0,1,4.44,1.78,6.46,6.46,0,0,1,1.65,4.57v1.27h-8.76a2.25,2.25,0,0,0,.89,1.59,2.89,2.89,0,0,0,1.78.57,5.24,5.24,0,0,0,3.17-1l2,2q-1.39,1.9-5.2,1.9a6.1,6.1,0,0,1-6.35-6.35Zm8.13-2.85a3,3,0,0,0-3.56,0,1.86,1.86,0,0,0-.76,1.58h5.08A1.89,1.89,0,0,0,259.71,246.81Z"/><path class="cls-5" d="M270.2,243.31l3,7.94,3.05-7.94h3.6L274.74,256h-3l-5.11-12.7Z"/><path class="cls-5" d="M284.09,254.28a6.68,6.68,0,1,1,4.62,1.86A6.3,6.3,0,0,1,284.09,254.28Zm4.61-1.22a3,3,0,0,0,2.35-1,3.7,3.7,0,0,0,0-4.84,3.31,3.31,0,0,0-4.7,0,3.7,3.7,0,0,0,0,4.84A3.06,3.06,0,0,0,288.7,253.06Z"/><path class="cls-5" d="M304.17,256a4.76,4.76,0,0,1-3.43-1.21,4.11,4.11,0,0,1-1.27-3.11V246.2h-1.9v-2.87h1.9v-3.44l3.57-.38v3.82H305v2.87H303v5a1.9,1.9,0,0,0,.43,1.42,1.49,1.49,0,0,0,1.1.42,6.57,6.57,0,0,0,.95-.17l.75,2.55A3.74,3.74,0,0,1,304.17,256Z"/><path class="cls-5" d="M308.58,249.66a6.1,6.1,0,0,1,6.35-6.35,5.82,5.82,0,0,1,4.45,1.78,6.46,6.46,0,0,1,1.65,4.57v1.27h-8.76a2.24,2.24,0,0,0,.88,1.59,2.89,2.89,0,0,0,1.78.57,5.27,5.27,0,0,0,3.18-1l2,2q-1.39,1.9-5.21,1.9a6.1,6.1,0,0,1-6.35-6.35Zm8.13-2.85a3,3,0,0,0-3.56,0,1.89,1.89,0,0,0-.76,1.58h5.08A1.86,1.86,0,0,0,316.71,246.81Z"/><path class="cls-5" d="M336.7,237v19h-3.56v-1a4.78,4.78,0,0,1-2.79,1,5.9,5.9,0,0,1-4.63-1.9,6.6,6.6,0,0,1,0-8.89,5.91,5.91,0,0,1,4.63-1.91,4.21,4.21,0,0,1,2.79,1V237Zm-3.56,13.82v-2.05a2.76,2.76,0,0,0-2.66-2.5,3.35,3.35,0,0,0-3.43,3.16c.08,2.37,1.23,3.59,3.43,3.68C332.08,252.84,333,252.07,333.14,250.8Z"/><path class="cls-5" d="M356.11,256a4.76,4.76,0,0,1-3.43-1.21,4.11,4.11,0,0,1-1.27-3.11V246.2h-1.9v-2.87h1.9v-3.44l3.57-.38v3.82h1.9v2.87H355v5a1.9,1.9,0,0,0,.43,1.42,1.47,1.47,0,0,0,1.09.42,6.39,6.39,0,0,0,1-.17l.74,2.55A3.71,3.71,0,0,1,356.11,256Z"/><path class="cls-5" d="M362.31,254.28a6.67,6.67,0,1,1,4.62,1.86A6.3,6.3,0,0,1,362.31,254.28Zm4.61-1.22a3.06,3.06,0,0,0,2.35-1,3.7,3.7,0,0,0,0-4.84,3.31,3.31,0,0,0-4.7,0,3.7,3.7,0,0,0,0,4.84A3.06,3.06,0,0,0,366.92,253.06Z"/><path class="cls-5" d="M386.75,239a1.86,1.86,0,0,1,1.37-.51,1.9,1.9,0,0,1,1.42.51,1.74,1.74,0,0,1,.51,1.28,1.72,1.72,0,0,1-.51,1.27,1.85,1.85,0,0,1-1.39.5,1.89,1.89,0,0,1-1.4-.5,1.72,1.72,0,0,1-.51-1.27A1.74,1.74,0,0,1,386.75,239Zm3.17,17V243.3h-3.55V256Z"/><path class="cls-5" d="M397.36,247.88V256H393.8V243.68l3.56-.38v1.13a4.29,4.29,0,0,1,3.05-1.12,4.64,4.64,0,0,1,3.68,1.46,5.56,5.56,0,0,1,4.19-1.46,4.64,4.64,0,0,1,3.68,1.46,5,5,0,0,1,1.27,3.37V256h-3.56v-7a3,3,0,0,0-.57-2,2.36,2.36,0,0,0-1.85-.74,2.42,2.42,0,0,0-1.83,1.4,5.29,5.29,0,0,0-.06.8V256H401.8v-7a3,3,0,0,0-.57-2,2.36,2.36,0,0,0-1.85-.74A2.62,2.62,0,0,0,397.36,247.88Z"/><path class="cls-5" d="M417.14,261.34V243.68l3.56-.38v1a4.8,4.8,0,0,1,2.79-1,5.94,5.94,0,0,1,4.64,1.91,6.62,6.62,0,0,1,0,8.88,5.94,5.94,0,0,1-4.64,1.91,4.21,4.21,0,0,1-2.79-1v6.38Zm3.56-12.83v2.05a2.75,2.75,0,0,0,2.67,2.5,3.34,3.34,0,0,0,3.42-3.16c-.08-2.37-1.22-3.59-3.42-3.68C421.76,246.48,420.87,247.24,420.7,248.51Z"/><path class="cls-5" d="M436.49,244.71a4.44,4.44,0,0,1,3.31-1.4,6.39,6.39,0,0,1,1.18.11l-.56,3.5a2.73,2.73,0,0,0-1.78-.6c-.86.06-1.58.69-2.15,1.88V256h-3.56V243.68l3.56-.38Z"/><path class="cls-5" d="M445.27,254.28a6.67,6.67,0,1,1,4.62,1.86A6.27,6.27,0,0,1,445.27,254.28Zm4.6-1.22a3,3,0,0,0,2.35-1,3.7,3.7,0,0,0,0-4.84,3.07,3.07,0,0,0-2.36-1,3,3,0,0,0-2.33,1,3.67,3.67,0,0,0,0,4.84A3,3,0,0,0,449.87,253.06Z"/><path class="cls-5" d="M462.16,243.31l3,7.94,3.05-7.94h3.6L466.7,256h-3l-5.11-12.7Z"/><path class="cls-5" d="M475.32,239a1.84,1.84,0,0,1,1.37-.51,1.91,1.91,0,0,1,1.42.51,1.74,1.74,0,0,1,.51,1.28,1.72,1.72,0,0,1-.51,1.27,2.2,2.2,0,0,1-2.79,0,1.72,1.72,0,0,1-.51-1.27A1.74,1.74,0,0,1,475.32,239Zm3.17,17V243.3h-3.55V256Z"/><path class="cls-5" d="M486,247.94V256h-3.55V243.68l3.55-.38v1.16a4.47,4.47,0,0,1,3-1.15,4.61,4.61,0,0,1,3.68,1.46,5,5,0,0,1,1.27,3.37V256h-3.55v-7a2.8,2.8,0,0,0-.64-2,2.56,2.56,0,0,0-1.91-.74C487.13,246.37,486.5,246.91,486,247.94Z"/><path class="cls-5" d="M509.77,243.7V255a6.5,6.5,0,0,1-1.58,4.46,5.48,5.48,0,0,1-4,1.89l-.77.08a8,8,0,0,1-5.71-2.11l1.65-1.9a6.41,6.41,0,0,0,3.39,1.14,3.29,3.29,0,0,0,2.75-.95,3.42,3.42,0,0,0,.72-2.1v-.63a5.13,5.13,0,0,1-3.3,1.14,5.43,5.43,0,0,1-4.38-1.71,6.9,6.9,0,0,1-1.46-4.64,6.65,6.65,0,0,1,1.58-4.57,5.75,5.75,0,0,1,4.51-1.78,4.21,4.21,0,0,1,3.05,1.16v-1.16Zm-3.55,7.1v-2.05a2.76,2.76,0,0,0-2.67-2.5,3.15,3.15,0,0,0-3.43,3.16c.09,2.37,1.23,3.59,3.43,3.68C505.16,252.84,506.05,252.07,506.22,250.8Z"/><path class="cls-5" d="M528.6,256a4.76,4.76,0,0,1-3.43-1.21,4.11,4.11,0,0,1-1.27-3.11V246.2H522v-2.87h1.9v-3.44l3.57-.38v3.82h1.91v2.87h-1.91v5a1.9,1.9,0,0,0,.43,1.42A1.49,1.49,0,0,0,529,253a6.39,6.39,0,0,0,1-.17l.75,2.55A3.74,3.74,0,0,1,528.6,256Z"/><path class="cls-5" d="M537.24,247.43V256h-3.55V237h3.55v7.49a4.45,4.45,0,0,1,3-1.15,4.62,4.62,0,0,1,3.68,1.46,5,5,0,0,1,1.27,3.37V256h-3.56v-7a2.84,2.84,0,0,0-.63-2,2.45,2.45,0,0,0-3.81.37Z"/><path class="cls-5" d="M547.81,249.66a6.1,6.1,0,0,1,6.35-6.35,5.78,5.78,0,0,1,4.44,1.78,6.46,6.46,0,0,1,1.65,4.57v1.27h-8.76a2.25,2.25,0,0,0,.89,1.59,2.89,2.89,0,0,0,1.78.57,5.24,5.24,0,0,0,3.17-1l2,2q-1.4,1.9-5.2,1.9a6.1,6.1,0,0,1-6.35-6.35Zm8.12-2.85a2.81,2.81,0,0,0-1.77-.58,2.84,2.84,0,0,0-1.78.58,1.86,1.86,0,0,0-.76,1.58h5.08A1.87,1.87,0,0,0,555.93,246.81Z"/><path class="cls-5" d="M573.59,256V237h3.56v19Z"/><path class="cls-5" d="M582.08,239a1.86,1.86,0,0,1,1.37-.51,1.94,1.94,0,0,1,1.43.51,1.77,1.77,0,0,1,.5,1.28,1.75,1.75,0,0,1-.5,1.27,2.21,2.21,0,0,1-2.8,0,1.72,1.72,0,0,1-.51-1.27A1.74,1.74,0,0,1,582.08,239Zm3.18,17V243.3H581.7V256Z"/><path class="cls-5" d="M591.74,243.31l3,7.94,3-7.94h3.6L596.28,256h-3l-5.11-12.7Z"/><path class="cls-5" d="M603.84,249.66a6.1,6.1,0,0,1,6.35-6.35,5.78,5.78,0,0,1,4.44,1.78,6.46,6.46,0,0,1,1.65,4.57v1.27h-8.76a2.29,2.29,0,0,0,.89,1.59,2.89,2.89,0,0,0,1.78.57,5.22,5.22,0,0,0,3.17-1l2,2c-.94,1.27-2.67,1.9-5.21,1.9a6.1,6.1,0,0,1-6.35-6.35Zm8.13-2.85a3,3,0,0,0-3.56,0,1.89,1.89,0,0,0-.76,1.58h5.08A1.86,1.86,0,0,0,612,246.81Z"/><path class="cls-5" d="M627.08,243.67a6.2,6.2,0,0,1,1.86,1.28l-2,2.24a2.71,2.71,0,0,0-2.16-1,2.36,2.36,0,0,0-1.72.47.54.54,0,0,0,0,.87,3.86,3.86,0,0,0,1.72.64,6,6,0,0,1,3.09,1.08,3.64,3.64,0,0,1,1.21,3.13,3.2,3.2,0,0,1-1.42,2.8,5.65,5.65,0,0,1-3.31,1,7.7,7.7,0,0,1-3-.52,6.57,6.57,0,0,1-2.06-1.37l2-2.23a3.76,3.76,0,0,0,2.68,1.2,2.57,2.57,0,0,0,1.88-.48.72.72,0,0,0,.13-1c-.2-.32-.87-.53-2-.64a7.08,7.08,0,0,1-2.84-1,3.13,3.13,0,0,1-1.29-2.92,3.45,3.45,0,0,1,1.47-3,5.14,5.14,0,0,1,3-1A7.1,7.1,0,0,1,627.08,243.67Z"/><path class="cls-5" d="M643.36,254.28a6.67,6.67,0,1,1,4.62,1.86A6.27,6.27,0,0,1,643.36,254.28Zm4.61-1.22a3.07,3.07,0,0,0,2.35-1,3.7,3.7,0,0,0,0-4.84,3.09,3.09,0,0,0-2.37-1,3,3,0,0,0-2.33,1,3.7,3.7,0,0,0,0,4.84A3,3,0,0,0,648,253.06Z"/><path class="cls-5" d="M658.29,256V245.85h-1.9V243h1.9v-1.7a4.13,4.13,0,0,1,1.27-3.11,5.56,5.56,0,0,1,7,.07l-1.89,2.1a1.68,1.68,0,0,0-1.27-.39,1.53,1.53,0,0,0-1.1.41,1.93,1.93,0,0,0-.43,1.43V243h1.91v2.87h-1.91V256Z"/><path class="cls-5" d="M395.8,284a4.76,4.76,0,0,1-3.43-1.21,4.08,4.08,0,0,1-1.27-3.11V274.2h-1.9v-2.87h1.9v-3.44l3.57-.38v3.82h1.9v2.87h-1.9v5a1.94,1.94,0,0,0,.42,1.42,1.51,1.51,0,0,0,1.1.42,6.35,6.35,0,0,0,.95-.17l.75,2.55A3.73,3.73,0,0,1,395.8,284Z"/><path class="cls-5" d="M404.44,275.43V284h-3.56V265h3.56v7.49a4.43,4.43,0,0,1,3-1.15,4.65,4.65,0,0,1,3.69,1.46,5,5,0,0,1,1.26,3.37V284h-3.55v-7a2.84,2.84,0,0,0-.63-2,2.6,2.6,0,0,0-1.92-.74A2.53,2.53,0,0,0,404.44,275.43Z"/><path class="cls-5" d="M416.8,282.28a6.67,6.67,0,1,1,4.62,1.86A6.27,6.27,0,0,1,416.8,282.28Zm4.6-1.22a3,3,0,0,0,2.35-1,3.7,3.7,0,0,0,0-4.84,3.3,3.3,0,0,0-4.69,0,3.67,3.67,0,0,0,0,4.84A3,3,0,0,0,421.4,281.06Z"/><path class="cls-5" d="M438.31,271.67a6,6,0,0,1,1.85,1.28l-2,2.24a2.68,2.68,0,0,0-2.16-1,2.35,2.35,0,0,0-1.71.47.54.54,0,0,0,0,.87,3.86,3.86,0,0,0,1.71.64,6,6,0,0,1,3.1,1.08,3.64,3.64,0,0,1,1.21,3.13,3.23,3.23,0,0,1-1.42,2.8,5.68,5.68,0,0,1-3.32,1,7.69,7.69,0,0,1-3-.52,6.46,6.46,0,0,1-2.06-1.37l2-2.23a3.78,3.78,0,0,0,2.68,1.2,2.6,2.6,0,0,0,1.89-.48.74.74,0,0,0,.13-.95c-.2-.32-.87-.53-2-.64a7,7,0,0,1-2.83-.95,3.13,3.13,0,0,1-1.29-2.92,3.46,3.46,0,0,1,1.46-3,5.19,5.19,0,0,1,3-1A7.13,7.13,0,0,1,438.31,271.67Z"/><path class="cls-5" d="M443.08,277.66a6.08,6.08,0,0,1,6.34-6.35,5.79,5.79,0,0,1,4.45,1.78,6.46,6.46,0,0,1,1.65,4.57v1.27h-8.76a2.22,2.22,0,0,0,.89,1.59,2.86,2.86,0,0,0,1.77.57,5.25,5.25,0,0,0,3.18-1l2,2q-1.39,1.9-5.21,1.9a6.08,6.08,0,0,1-6.34-6.35Zm8.12-2.85a2.84,2.84,0,0,0-1.78-.58,2.81,2.81,0,0,0-1.77.58,1.87,1.87,0,0,0-.77,1.58H452A1.86,1.86,0,0,0,451.2,274.81Z"/><path class="cls-5" d="M476.39,277.65l-1.9,6.36h-3.18l-3.4-12.71h3.34l2,7.5,1.9-7.5h2.63l1.81,7.63,2-7.63h3.34L481.47,284h-3.18Z"/><path class="cls-5" d="M488.61,267a1.86,1.86,0,0,1,1.37-.51,1.91,1.91,0,0,1,1.42.51,1.74,1.74,0,0,1,.51,1.28,1.72,1.72,0,0,1-.51,1.27,2.2,2.2,0,0,1-2.79,0,1.72,1.72,0,0,1-.51-1.27A1.74,1.74,0,0,1,488.61,267Zm3.17,17V271.3h-3.55V284Z"/><path class="cls-5" d="M501.45,284A4.76,4.76,0,0,1,498,282.8a4.11,4.11,0,0,1-1.27-3.11V274.2h-1.9v-2.87h1.9v-3.44l3.57-.38v3.82h1.91v2.87h-1.91v5a1.9,1.9,0,0,0,.43,1.42,1.49,1.49,0,0,0,1.09.42,6.39,6.39,0,0,0,1-.17l.75,2.55A3.74,3.74,0,0,1,501.45,284Z"/><path class="cls-5" d="M510.09,275.43V284h-3.55V265h3.55v7.49a4.45,4.45,0,0,1,3.05-1.15,4.62,4.62,0,0,1,3.68,1.46,5,5,0,0,1,1.27,3.37V284h-3.56v-7a2.84,2.84,0,0,0-.63-2,2.45,2.45,0,0,0-3.81.37Z"/><path class="cls-5" d="M543.1,265v19h-3.56v-1a4.76,4.76,0,0,1-2.79,1,5.9,5.9,0,0,1-4.63-1.9,6.6,6.6,0,0,1,0-8.89,5.91,5.91,0,0,1,4.63-1.91,4.21,4.21,0,0,1,2.79,1V265Zm-3.56,13.82v-2.05a2.74,2.74,0,0,0-2.66-2.5,3.35,3.35,0,0,0-3.43,3.16c.09,2.37,1.23,3.59,3.43,3.68C538.49,280.84,539.38,280.07,539.54,278.8Z"/><path class="cls-5" d="M546.38,277.66a6.1,6.1,0,0,1,6.35-6.35,5.78,5.78,0,0,1,4.44,1.78,6.46,6.46,0,0,1,1.65,4.57v1.27h-8.76a2.25,2.25,0,0,0,.89,1.59,2.89,2.89,0,0,0,1.78.57,5.24,5.24,0,0,0,3.17-1l2,2q-1.39,1.9-5.2,1.9a6.1,6.1,0,0,1-6.35-6.35Zm8.13-2.85a3,3,0,0,0-3.56,0,1.86,1.86,0,0,0-.76,1.58h5.08A1.89,1.89,0,0,0,554.51,274.81Z"/><path class="cls-5" d="M562.4,289.34V271.68l3.55-.38v1a4.81,4.81,0,0,1,2.8-1,5.92,5.92,0,0,1,4.63,1.91,6.62,6.62,0,0,1,0,8.88,5.92,5.92,0,0,1-4.63,1.91,4.24,4.24,0,0,1-2.8-1v6.38ZM566,276.51v2.05a2.75,2.75,0,0,0,2.67,2.5,3.35,3.35,0,0,0,3.43-3.16c-.09-2.37-1.23-3.59-3.43-3.68C567,274.48,566.12,275.24,566,276.51Z"/><path class="cls-5" d="M581.74,272.71a4.44,4.44,0,0,1,3.31-1.4,6.31,6.31,0,0,1,1.18.11l-.56,3.5a2.72,2.72,0,0,0-1.77-.6c-.87.06-1.59.69-2.16,1.88V284h-3.56V271.68l3.56-.38Z"/><path class="cls-5" d="M588.73,277.66a6.1,6.1,0,0,1,6.35-6.35,5.78,5.78,0,0,1,4.44,1.78,6.46,6.46,0,0,1,1.65,4.57v1.27h-8.76a2.22,2.22,0,0,0,.89,1.59,2.89,2.89,0,0,0,1.78.57,5.24,5.24,0,0,0,3.17-1l2,2q-1.39,1.9-5.2,1.9a6.1,6.1,0,0,1-6.35-6.35Zm8.12-2.85a2.81,2.81,0,0,0-1.77-.58,2.84,2.84,0,0,0-1.78.58,1.86,1.86,0,0,0-.76,1.58h5.08A1.87,1.87,0,0,0,596.85,274.81Z"/><path class="cls-5" d="M612,271.67a6,6,0,0,1,1.85,1.28l-2,2.24a2.69,2.69,0,0,0-2.16-1,2.35,2.35,0,0,0-1.71.47.54.54,0,0,0,0,.87,3.86,3.86,0,0,0,1.71.64,6,6,0,0,1,3.1,1.08,3.67,3.67,0,0,1,1.21,3.13,3.21,3.21,0,0,1-1.43,2.8,5.63,5.63,0,0,1-3.31,1,7.69,7.69,0,0,1-3-.52,6.46,6.46,0,0,1-2.06-1.37l2-2.23a3.78,3.78,0,0,0,2.68,1.2,2.62,2.62,0,0,0,1.89-.48.73.73,0,0,0,.12-.95c-.19-.32-.87-.53-2-.64a7.13,7.13,0,0,1-2.84-.95,3.14,3.14,0,0,1-1.28-2.92,3.44,3.44,0,0,1,1.46-3,5.17,5.17,0,0,1,3-1A7.13,7.13,0,0,1,612,271.67Z"/><path class="cls-5" d="M624.58,271.67a6,6,0,0,1,1.85,1.28l-2,2.24a2.67,2.67,0,0,0-2.15-1,2.36,2.36,0,0,0-1.72.47.54.54,0,0,0,0,.87,3.86,3.86,0,0,0,1.72.64,6,6,0,0,1,3.09,1.08,3.64,3.64,0,0,1,1.21,3.13,3.23,3.23,0,0,1-1.42,2.8,5.68,5.68,0,0,1-3.32,1,7.69,7.69,0,0,1-3-.52,6.46,6.46,0,0,1-2.06-1.37l2-2.23a3.74,3.74,0,0,0,2.68,1.2,2.57,2.57,0,0,0,1.88-.48.73.73,0,0,0,.13-.95c-.2-.32-.87-.53-2-.64a7.08,7.08,0,0,1-2.84-.95,3.13,3.13,0,0,1-1.29-2.92,3.45,3.45,0,0,1,1.47-3,5.14,5.14,0,0,1,3-1A7.13,7.13,0,0,1,624.58,271.67Z"/><path class="cls-5" d="M630.4,267a1.86,1.86,0,0,1,1.37-.51,1.94,1.94,0,0,1,1.43.51,1.77,1.77,0,0,1,.5,1.28,1.75,1.75,0,0,1-.5,1.27,2.21,2.21,0,0,1-2.8,0,1.72,1.72,0,0,1-.51-1.27A1.74,1.74,0,0,1,630.4,267Zm3.18,17V271.3H630V284Z"/><path class="cls-5" d="M638.62,282.28a6.68,6.68,0,1,1,4.62,1.86A6.3,6.3,0,0,1,638.62,282.28Zm4.61-1.22a3,3,0,0,0,2.35-1,3.7,3.7,0,0,0,0-4.84,3.31,3.31,0,0,0-4.7,0,3.7,3.7,0,0,0,0,4.84A3.06,3.06,0,0,0,643.23,281.06Z"/><path class="cls-5" d="M656.52,275.94V284H653V271.68l3.56-.38v1.16a4.43,4.43,0,0,1,3-1.15,4.65,4.65,0,0,1,3.69,1.46,5,5,0,0,1,1.27,3.37V284H661v-7a2.84,2.84,0,0,0-.63-2,2.6,2.6,0,0,0-1.92-.74Q657.3,274.4,656.52,275.94Z"/></g></g></svg>